<svg width="74" height="27" viewBox="0 0 74 27" fill="none" xmlns="http://www.w3.org/2000/svg">
<path d="M26.8125 15.5859L29.1992 5.02344C29.3516 4.26172 28.793 3.5 27.9805 3.5H8.07422L7.61719 1.26562C7.46484 0.707031 6.95703 0.25 6.39844 0.25H1.21875C0.507812 0.25 0 0.808594 0 1.46875V2.28125C0 2.99219 0.507812 3.5 1.21875 3.5H4.72266L8.32812 20.9688C7.46484 21.4766 6.90625 22.3906 6.90625 23.4062C6.90625 24.9805 8.17578 26.25 9.75 26.25C11.2734 26.25 12.5938 24.9805 12.5938 23.4062C12.5938 22.6445 12.2383 21.9336 11.7305 21.375H22.3438C21.8359 21.9336 21.5312 22.6445 21.5312 23.4062C21.5312 24.9805 22.8008 26.25 24.375 26.25C25.8984 26.25 27.2188 24.9805 27.2188 23.4062C27.2188 22.2891 26.5586 21.3242 25.5938 20.8672L25.8477 19.6484C26.0508 18.8867 25.4414 18.125 24.6797 18.125H11.0703L10.7148 16.5H25.5938C26.1523 16.5 26.6602 16.1445 26.8125 15.5859Z" fill="#FFC725"/>
<circle cx="25.5" cy="17.5" r="8.5" fill="#F37335"/>
<path d="M46.998 16.6528C46.998 17.4292 46.7173 18.0542 46.1558 18.5278C45.5942 18.9966 44.8081 19.2773 43.7974 19.3701V20.8716H42.7939V19.3994C41.6025 19.375 40.5576 19.165 39.6592 18.7695V16.8359C40.084 17.0459 40.5942 17.2314 41.1899 17.3926C41.7905 17.5537 42.3252 17.6489 42.7939 17.6782V15.4077L42.3032 15.2173C41.3364 14.8364 40.6504 14.4238 40.2451 13.9795C39.8447 13.5303 39.6445 12.9761 39.6445 12.3169C39.6445 11.6089 39.9204 11.0278 40.4722 10.5737C41.0288 10.1147 41.8027 9.83643 42.7939 9.73877V8.61816H43.7974V9.70947C44.9155 9.7583 45.9263 9.98291 46.8296 10.3833L46.1411 12.0972C45.3794 11.7847 44.5981 11.5942 43.7974 11.5259V13.6865C44.7495 14.0527 45.4258 14.3701 45.8262 14.6387C46.2314 14.9072 46.5269 15.2026 46.7124 15.5249C46.9028 15.8472 46.998 16.2231 46.998 16.6528ZM44.7935 16.7627C44.7935 16.5576 44.7104 16.3843 44.5444 16.2427C44.3784 16.1011 44.1294 15.9546 43.7974 15.8032V17.627C44.4614 17.5146 44.7935 17.2266 44.7935 16.7627ZM41.8491 12.3169C41.8491 12.5317 41.9224 12.71 42.0688 12.8516C42.2202 12.9883 42.4619 13.1299 42.7939 13.2764V11.5552C42.1641 11.6479 41.8491 11.9019 41.8491 12.3169ZM53.7656 20H51.5024V13.8037L51.5244 12.7856L51.561 11.6724C51.1851 12.0483 50.9238 12.2949 50.7773 12.4121L49.5469 13.4009L48.4556 12.0386L51.9053 9.29199H53.7656V20ZM64.2246 20H56.7393V18.4253L59.4272 15.708C60.2231 14.8926 60.7432 14.3286 60.9873 14.0161C61.2314 13.6987 61.4072 13.4058 61.5146 13.1372C61.6221 12.8687 61.6758 12.5903 61.6758 12.3022C61.6758 11.8726 61.5562 11.5527 61.3169 11.3428C61.0825 11.1328 60.7676 11.0278 60.3721 11.0278C59.957 11.0278 59.5542 11.123 59.1636 11.3135C58.7729 11.5039 58.3652 11.7749 57.9404 12.1265L56.71 10.6689C57.2373 10.2197 57.6743 9.90234 58.021 9.7168C58.3677 9.53125 58.7461 9.38965 59.1562 9.29199C59.5664 9.18945 60.0254 9.13818 60.5332 9.13818C61.2021 9.13818 61.793 9.26025 62.3057 9.50439C62.8184 9.74854 63.2163 10.0903 63.4995 10.5298C63.7827 10.9692 63.9243 11.4722 63.9243 12.0386C63.9243 12.5317 63.8364 12.9956 63.6606 13.4302C63.4897 13.8599 63.2212 14.3018 62.855 14.7559C62.4937 15.21 61.854 15.8569 60.936 16.6968L59.5591 17.9932V18.0957H64.2246V20ZM69.2051 13.1592C70.2402 13.1592 71.063 13.4497 71.6733 14.0308C72.2886 14.6118 72.5962 15.4077 72.5962 16.4185C72.5962 17.6147 72.2275 18.5352 71.4902 19.1797C70.7529 19.8242 69.6982 20.1465 68.3262 20.1465C67.1348 20.1465 66.1729 19.9536 65.4404 19.5679V17.6123C65.8262 17.8174 66.2754 17.9858 66.7881 18.1177C67.3008 18.2446 67.7866 18.3081 68.2456 18.3081C69.6274 18.3081 70.3184 17.7417 70.3184 16.6089C70.3184 15.5298 69.603 14.9902 68.1724 14.9902C67.9136 14.9902 67.6279 15.0171 67.3154 15.0708C67.0029 15.1196 66.749 15.1733 66.5537 15.2319L65.6528 14.7485L66.0557 9.29199H71.8638V11.2109H68.0405L67.8428 13.313L68.0991 13.2617C68.397 13.1934 68.7656 13.1592 69.2051 13.1592Z" fill="#443737"/>
<path d="M25.6416 16.4395C26.3317 16.4395 26.8802 16.6331 27.2871 17.0205C27.6973 17.4079 27.9023 17.9385 27.9023 18.6123C27.9023 19.4098 27.6566 20.0234 27.165 20.4531C26.6735 20.8828 25.9704 21.0977 25.0557 21.0977C24.2614 21.0977 23.6201 20.9691 23.1318 20.7119V19.4082C23.389 19.5449 23.6885 19.6572 24.0303 19.7451C24.3721 19.8298 24.696 19.8721 25.002 19.8721C25.9232 19.8721 26.3838 19.4945 26.3838 18.7393C26.3838 18.0199 25.9069 17.6602 24.9531 17.6602C24.7806 17.6602 24.5902 17.6781 24.3818 17.7139C24.1735 17.7464 24.0042 17.7822 23.874 17.8213L23.2734 17.499L23.542 13.8613H27.4141V15.1406H24.8652L24.7334 16.542L24.9043 16.5078C25.1029 16.4622 25.3486 16.4395 25.6416 16.4395Z" fill="white"/>
</svg>
